HIERARCHY
ROOT Hips
{
	OFFSET -3.958830 18.904000 13.208200
	CHANNELS 6 Xposition Yposition Zposition Zrotation Yrotation Xrotation 
	JOINT LHipJoint
	{
		OFFSET 0.000000 0.000000 0.000000
		CHANNELS 3 Zrotation Yrotation Xrotation
		JOINT LeftUpLeg
		{
			OFFSET 1.800000 -1.400000 0.085000
			CHANNELS 3 Zrotation Yrotation Xrotation
			JOINT LeftLeg
			{
				OFFSET 2.215000 -6.000000 0.000000
				CHANNELS 3 Zrotation Yrotation Xrotation
				JOINT LeftFoot
				{
					OFFSET 2.500000 -6.900000 0.000000
					CHANNELS 3 Zrotation Yrotation Xrotation
					JOINT LeftToeBase
					{
						OFFSET 0.200000 -0.500000 1.950000
						CHANNELS 3 Zrotation Yrotation Xrotation
						End Site
						{
							OFFSET 0.000000 0.000000 0.000000
						}
					}
				}
			}
		}
	}
	JOINT RHipJoint
	{
		OFFSET 0.000000 0.000000 0.000000
		CHANNELS 3 Zrotation Yrotation Xrotation
		JOINT RightUpLeg
		{
			OFFSET -1.800000 -1.400000 0.085000
			CHANNELS 3 Zrotation Yrotation Xrotation
			JOINT RightLeg
			{
				OFFSET -2.215000 -6.000000 0.000000
				CHANNELS 3 Zrotation Yrotation Xrotation
				JOINT RightFoot
				{
					OFFSET -2.500000 -6.900000 0.000000
					CHANNELS 3 Zrotation Yrotation Xrotation
					JOINT RightToeBase
					{
						OFFSET -0.200000 -0.500000 1.950000
						CHANNELS 3 Zrotation Yrotation Xrotation
						End Site
						{
							OFFSET 0.000000 0.000000 0.000000
						}
					}
				}
			}
		}
	}
	JOINT LowerBack
	{
		OFFSET 0.000000 0.000000 0.000000
		CHANNELS 3 Zrotation Yrotation Xrotation
		JOINT Spine
		{
			OFFSET -0.087000 1.940000 -0.288900
			CHANNELS 3 Zrotation Yrotation Xrotation
			JOINT Spine1
			{
				OFFSET 0.000000 1.950000 0.060000
				CHANNELS 3 Zrotation Yrotation Xrotation
				JOINT Neck
				{
					OFFSET 0.000000 0.000000 0.000000
					CHANNELS 3 Zrotation Yrotation Xrotation
					JOINT Neck1
					{
						OFFSET 0.000000 1.600000 0.340000
						CHANNELS 3 Zrotation Yrotation Xrotation
						JOINT Head
						{
							OFFSET 0.000000 1.667000 -0.240000
							CHANNELS 3 Zrotation Yrotation Xrotation
							End Site
							{
								OFFSET 0.000000 0.000000 0.000000
							}
						}
					}
				}
				JOINT LeftShoulder
				{
					OFFSET 0.000000 0.000000 0.000000
					CHANNELS 3 Zrotation Yrotation Xrotation
					JOINT LeftArm
					{
						OFFSET 2.700000 1.550000 -0.730000
						CHANNELS 3 Zrotation Yrotation Xrotation
						JOINT LeftForeArm
						{
							OFFSET 5.450000 0.000000 0.000000
							CHANNELS 3 Zrotation Yrotation Xrotation
							JOINT LeftHand
							{
								OFFSET 3.450000 0.000000 0.000000
								CHANNELS 3 Zrotation Yrotation Xrotation
								JOINT LeftHandIndex1
								{
									OFFSET 0.750000 0.000000 0.000000
									CHANNELS 3 Zrotation Yrotation Xrotation
									End Site
									{
										OFFSET 0.000000 0.000000 0.000000
									}
								}
							}
						}
					}
				}
				JOINT RightShoulder
				{
					OFFSET 0.000000 0.000000 0.000000
					CHANNELS 3 Zrotation Yrotation Xrotation
					JOINT RightArm
					{
						OFFSET -2.700000 1.550000 -0.730000
						CHANNELS 3 Zrotation Yrotation Xrotation
						JOINT RightForeArm
						{
							OFFSET -5.450000 0.000000 0.000000
							CHANNELS 3 Zrotation Yrotation Xrotation
							JOINT RightHand
							{
								OFFSET -3.450000 0.000000 0.000000
								CHANNELS 3 Zrotation Yrotation Xrotation
								JOINT RightHandIndex1
								{
									OFFSET -0.750000 0.000000 0.000000
									CHANNELS 3 Zrotation Yrotation Xrotation
									End Site
									{
										OFFSET 0.000000 0.000000 0.000000
									}
								}
							}
						}
					}
				}
			}
		}
	}
}
MOTION
Frames: 13
Frame Time: 0.016667
-0.282800 16.086130 -2.350200 -7.198167 24.579785 -22.416836 -15.490733 13.064076 3.372486 23.586464 2.993195 -31.244551 8.976002 10.614121 53.623422 -0.011141 10.231808 0.816845 0.594970 -0.114950 0.692970 18.070132 -10.812277 2.051964 -21.560060 7.472481 -14.392290 5.262499 -12.482609 53.789103 -1.139810 -8.734245 1.415675 0.050120 0.253110 0.159200 -3.293112 -1.342019 -8.008807 -0.251181 5.917146 27.197563 -5.703131 9.940467 17.000181 1.489197 -8.065646 -14.291491 -27.074470 13.095154 65.047522 3.357740 -4.544040 -6.799240 10.262693 -21.809121 4.878315 13.320059 -20.645806 -3.439135 25.831148 -24.726727 -5.555659 -3.639463 2.613178 0.917850 -0.023390 -0.068450 0.091870 -13.166049 33.234058 3.261293 -21.490880 32.094360 -9.186939 -18.339113 19.656780 -2.393603 2.120797 -1.249678 -0.387240 0.424410 0.060200 -0.413610 
-0.173150 16.062620 -2.301370 -7.537200 26.154088 -23.790955 -15.484501 13.267371 3.142944 21.314881 2.143485 -30.823639 12.534720 8.337400 55.271122 -0.132637 10.240804 0.798545 0.644190 -0.092790 0.747930 18.027814 -10.994024 1.974549 -22.934431 6.686700 -11.524767 5.892849 -13.325189 53.348048 -1.193595 -8.897218 1.306937 0.132610 0.233610 0.147360 -3.307660 -1.400704 -7.831798 -0.468588 6.233597 26.536704 -4.554696 10.008166 18.649850 0.666445 -7.201483 -13.058175 -24.560958 11.892585 66.403764 4.679340 -4.499220 -9.438490 10.388873 -21.639573 3.939294 10.428553 -24.257269 -3.548126 30.137505 -26.934960 -7.680133 -3.609021 2.579940 1.002310 -0.049820 -0.061090 0.079370 -11.980241 32.169794 3.653668 -14.208359 32.872541 -8.409400 -24.919626 24.794745 -4.995507 1.999661 -1.267256 -0.465210 0.470390 0.075180 -0.475070 
-0.043030 16.053490 -2.262030 -7.559532 25.552030 -24.735094 -15.391207 13.339369 2.886647 20.148691 2.313512 -29.268996 14.397878 7.339200 56.426712 -0.071952 10.291292 0.788503 0.693920 -0.049800 0.821940 18.066676 -11.314271 1.955794 -23.909682 6.504519 -9.444417 5.848414 -13.251692 52.313794 -1.213107 -8.803330 1.325416 0.141410 0.168090 0.151360 -3.577814 -0.897757 -7.757796 1.625890 6.511502 25.941611 -5.459577 10.415781 19.457000 1.014392 -6.522561 -13.466866 -22.842371 11.203778 69.233488 3.929370 -4.038940 -9.950380 8.851659 -22.685241 4.087076 10.526239 -24.248970 -4.143704 32.032704 -27.383676 -8.367473 -3.563591 2.555780 1.034410 -0.086240 -0.009330 0.077760 -11.033068 32.608066 4.300675 -8.803362 32.315767 -7.738498 -28.412233 26.487996 -6.602812 1.995811 -1.285658 -0.443230 0.455540 0.034030 -0.498470 
0.068530 16.026940 -2.241840 -7.411580 24.330567 -26.067765 -15.350165 13.494967 2.748826 19.420860 2.375695 -27.752750 15.982732 6.575377 58.530693 0.111877 10.539919 0.734618 0.729460 -0.002000 0.861360 18.057322 -11.576752 1.843855 -24.341779 6.060574 -7.273377 4.434493 -12.360772 51.325863 -1.177430 -8.637389 1.383246 0.139800 0.116090 0.186020 -3.635825 -0.725901 -7.648007 2.527934 6.539215 25.897912 -5.465834 10.250372 20.357461 1.381799 -6.006412 -13.240852 -20.533661 9.842332 68.408936 1.253920 -2.975440 -8.453160 7.259573 -22.246205 4.117860 12.942657 -22.124294 -4.843710 32.482787 -27.115370 -8.127904 -3.573448 2.640207 0.963200 -0.066750 0.002500 0.085920 -10.122592 31.870696 4.713455 -8.567091 31.245167 -7.907632 -29.060278 27.865049 -7.119743 2.000327 -1.380650 -0.370350 0.366910 -0.021510 -0.493540 
0.186980 15.993640 -2.184800 -7.175275 22.878211 -27.299404 -15.348629 13.624523 2.619300 19.778895 2.873621 -25.767242 16.256582 6.788217 60.433052 0.229403 10.936867 0.656518 0.685800 -0.052500 0.833320 18.031140 -11.759397 1.722296 -24.980050 5.630738 -4.734826 3.390083 -11.666691 49.757507 -1.109212 -8.483519 1.465398 0.120810 0.166230 0.201970 -3.572549 -0.669550 -7.508190 2.987476 6.908245 24.896412 -4.593998 10.317794 21.915020 1.806345 -5.336631 -12.956770 -17.548031 7.884549 66.571802 -0.867310 -2.523680 -7.083210 7.627125 -20.339501 4.140502 12.711683 -19.680434 -4.942428 35.472157 -26.757867 -8.943996 -3.640894 2.657954 0.922870 -0.001270 -0.039200 0.094950 -11.144814 29.757979 5.261071 -8.759202 29.229243 -8.361266 -31.971899 27.712936 -8.137292 1.974967 -1.437307 -0.387920 0.366740 -0.005730 -0.494350 
0.287820 15.953520 -2.105000 -6.786702 20.624334 -28.782270 -15.363014 13.864660 2.460845 20.828675 3.980831 -23.093756 16.555568 7.209483 61.856521 0.465486 11.333957 0.656410 0.482470 -0.231050 0.657760 17.975444 -11.926793 1.621926 -25.250046 5.465485 -2.080224 1.774353 -10.573471 48.296438 -0.966280 -8.316404 1.624896 0.002730 0.373740 0.191540 -3.419180 -0.780794 -7.374458 3.120356 7.490583 24.327259 -3.177890 10.580913 23.449020 1.923964 -5.155475 -13.434229 -15.635572 6.642170 61.899085 -1.533400 -2.320950 -2.766030 8.825999 -18.398373 4.817320 11.231587 -14.639774 -5.546334 41.077848 -26.172357 -10.578391 -3.829484 2.666274 0.780950 0.147980 -0.169290 0.101720 -12.328777 28.379698 6.270972 -10.917556 24.761745 -9.450305 -33.549808 28.452977 -8.672184 2.009258 -1.467038 -0.421680 0.417960 0.080850 -0.416520 
0.434010 15.935260 -2.036850 -7.733259 19.415150 -30.697314 -15.218346 13.924476 2.311008 21.536062 4.499685 -20.802805 17.400069 6.841153 62.997949 0.453682 11.553826 0.535563 0.457630 -0.314040 0.631270 18.074066 -12.155592 1.638662 -25.226582 5.361837 0.555854 1.160252 -10.137217 46.838759 -0.937563 -8.189078 1.651056 -0.025310 0.329790 0.194170 -3.794736 -0.463711 -7.368368 6.950083 6.085647 25.296316 -4.689244 9.611128 23.661056 2.378198 -6.468660 -14.348929 -19.055594 7.977620 61.818890 -0.135990 -4.034310 -3.568380 8.223967 -16.443566 5.619945 10.761891 -7.306663 -6.121960 48.382292 -26.261159 -12.746656 -3.838152 2.727097 0.878250 0.090730 -0.174360 0.049400 -12.418177 26.907394 7.063685 -15.630946 20.083694 -10.765961 -35.260750 27.185544 -8.323331 2.068550 -1.472277 -0.453850 0.380530 0.146440 -0.458470 
0.565010 15.936500 -1.947810 -7.693630 19.413638 -29.930627 -15.305826 14.142976 2.353619 20.596439 4.289619 -20.783728 17.732846 6.697398 63.868403 0.408006 11.615915 0.423688 0.494080 -0.335260 0.718960 17.955788 -12.034083 1.623565 -26.220606 5.025769 1.115902 1.537167 -10.347924 45.193145 -0.945714 -7.923681 1.673107 -0.054680 0.184180 0.181030 -3.482034 -1.038801 -7.335738 5.984631 6.455416 23.214858 -3.143674 9.268317 21.553285 2.584744 -6.089115 -15.867684 -20.811254 9.848032 68.500465 2.199910 -4.895880 -5.095180 6.081324 -15.984172 6.286114 12.377491 -1.447555 -5.580077 53.834211 -25.603446 -13.301646 -3.763246 2.697384 1.059940 -0.054990 -0.068720 -0.014460 -10.347183 26.049519 8.700291 -18.677815 14.799168 -10.967951 -40.910571 29.371356 -9.478503 2.105821 -1.340883 -0.462440 0.351270 0.153420 -0.527480 
0.681080 15.935380 -1.855230 -7.930083 19.108123 -29.874262 -15.248468 14.232328 2.298008 20.325729 4.324192 -19.543492 17.840156 6.513441 63.920765 0.601593 11.426263 0.478200 0.609000 -0.171760 0.764470 17.962531 -12.165693 1.659499 -26.481146 4.712663 2.032028 1.134420 -10.070192 43.922586 -1.018312 -7.768620 1.708958 -0.060270 0.029760 0.243480 -3.603005 -0.944931 -7.383080 7.224369 5.605102 22.962619 -4.566258 8.619609 19.602969 3.344890 -5.793564 -16.610753 -20.236800 10.305635 69.452027 1.510080 -3.686520 -4.223890 3.547311 -15.170374 6.608621 14.098791 7.480660 -5.514116 62.702233 -23.695468 -13.967521 -3.723674 2.906876 1.019760 -0.131230 0.054320 0.038030 -9.176347 24.718199 9.841488 -20.505135 7.321678 -10.514235 -49.535690 32.112415 -12.340503 2.262018 -1.492420 -0.284080 0.192340 0.026390 -0.483840 
0.768190 15.956790 -1.757560 -7.743868 19.380215 -28.076245 -15.375422 14.414982 2.489389 19.445268 3.702618 -20.717211 17.773711 6.461504 64.482137 0.674578 11.383390 0.489606 0.637430 -0.143200 0.810960 17.798568 -12.036233 1.626567 -26.576258 4.093342 1.899585 0.882653 -9.883230 42.373829 -1.019530 -7.439696 1.826895 -0.098280 -0.059570 0.216880 -3.169941 -1.532408 -7.475808 4.915759 5.988456 21.512647 -2.774899 8.606390 15.894535 3.524229 -5.303981 -17.716235 -20.248534 10.417258 72.231018 2.129300 -3.875120 -3.821670 1.955974 -14.494109 6.932055 15.064757 15.647342 -4.305078 71.338694 -21.954412 -14.052904 -3.694785 2.905287 1.077720 -0.215670 0.136010 0.049130 -7.540183 24.045567 11.186201 -21.191542 -1.381473 -9.239322 -61.442913 31.391352 -14.947168 2.401281 -1.445313 -0.247000 0.175880 -0.031620 -0.488620 
0.841680 15.962410 -1.665640 -7.507591 19.519368 -25.833924 -15.454477 14.523286 2.685905 19.010783 3.178779 -21.683061 16.802717 7.123014 64.616690 0.620599 11.525382 0.520891 0.399000 -0.394390 0.610080 17.685598 -11.944212 1.603266 -26.542522 3.623256 1.447407 0.628168 -9.642601 40.724335 -0.875436 -7.126007 2.024962 -0.202960 0.164090 0.083500 -2.888139 -1.949686 -7.598491 2.946989 6.707268 20.791347 -0.971115 9.272408 11.080854 2.781964 -5.878727 -18.637230 -23.109125 11.741012 72.222371 7.198800 -6.677030 0.047190 1.550698 -13.444839 7.340519 13.204545 21.396228 -3.772427 81.066795 -15.234796 -11.231072 -3.833759 2.704052 1.136250 -0.160400 0.021290 0.049680 -5.113820 23.577646 12.093307 -22.599097 -12.562703 -6.929755 -74.448189 26.930198 -15.181090 2.490288 -1.239400 -0.443240 0.389430 0.112150 -0.468840 
0.908140 15.989010 -1.609070 -6.623527 20.571579 -24.393553 -15.517146 14.613251 2.819708 17.815635 2.164562 -21.707972 15.326817 7.702124 64.363331 0.481205 11.549160 0.506482 0.320040 -0.539190 0.617710 17.582294 -11.904467 1.576855 -27.154713 3.208884 1.556374 0.107159 -9.320298 39.297691 -0.794593 -6.885173 2.085363 -0.231570 0.185530 0.012780 -2.668311 -2.259509 -7.647202 -0.001099 6.978245 21.634355 0.077232 9.432342 6.673575 2.596863 -5.900518 -18.522245 -23.581588 11.761203 73.106112 8.318380 -7.688360 0.858100 0.454980 -12.119964 6.809022 14.076413 27.236043 -2.880646 89.718442 -6.416875 -4.478946 -3.858145 2.649214 1.234360 -0.186570 -0.015580 0.002300 -3.340578 22.527531 12.202148 -24.338530 -20.308979 -5.005363 -82.453265 16.920943 -9.476880 2.574960 -1.176339 -0.575380 0.462660 0.175510 -0.531800 
0.969570 16.015030 -1.596570 -6.269380 22.208611 -23.339731 -15.475443 14.555333 3.015310 16.894341 0.648598 -21.893420 13.257669 8.224257 63.839181 0.476140 11.269509 0.539621 0.436280 -0.350620 0.670950 17.576704 -11.951154 1.581579 -27.551588 2.593711 1.489220 -0.260406 -9.030103 37.879250 -0.851346 -6.618938 2.160925 -0.179960 0.040690 0.004360 -2.792588 -2.212996 -7.773886 -1.358952 6.565334 24.592120 -0.651826 8.882136 0.332655 2.779815 -5.648657 -18.976562 -23.883348 12.335406 76.240863 9.870360 -7.759830 -1.978390 -0.032287 -11.129547 6.412397 13.661382 31.293652 -2.856325 97.507375 3.619650 6.003474 -3.712370 2.762550 1.275990 -0.289530 0.113990 0.021720 -3.002631 21.511916 12.373538 -24.494995 -26.953706 -3.710219 -87.738984 5.313838 -0.036305 2.667883 -1.209609 -0.480100 0.426670 0.087440 -0.519340 
